<svg width="18" height="18" viewBox="0 0 18 18" fill="none" xmlns="http://www.w3.org/2000/svg">
<rect x="0.75" y="2.38635" width="16.5" height="14.8636" rx="1.25" stroke="#75778B" stroke-width="1.5"/>
<rect width="3" height="1.5" transform="matrix(1 0 0 -1 4 12)" fill="#75778B"/>
<rect width="3" height="1.5" transform="matrix(1 0 0 -1 11 12)" fill="#75778B"/>
<rect x="1" y="6" width="16" height="1.5" fill="#75778B"/>
<path fill-rule="evenodd" clip-rule="evenodd" d="M4.02295 0C3.60874 0 3.27295 0.335786 3.27295 0.75V3.34091C3.27295 3.75512 3.60874 4.09091 4.02295 4.09091C4.43716 4.09091 4.77295 3.75512 4.77295 3.34091V0.75C4.77295 0.335787 4.43716 0 4.02295 0ZM13.8413 0C13.4271 0 13.0913 0.335786 13.0913 0.75V3.34091C13.0913 3.75512 13.4271 4.09091 13.8413 4.09091C14.2555 4.09091 14.5913 3.75512 14.5913 3.34091V0.75C14.5913 0.335787 14.2555 0 13.8413 0Z" fill="#75778B"/>
</svg>
