<svg width="10" height="18" viewBox="0 0 10 18" fill="none" xmlns="http://www.w3.org/2000/svg">
<path d="M9.54 12.18C9.54 12.82 9.38 13.4333 9.06 14.02C8.74 14.5933 8.26667 15.0733 7.64 15.46C7.02667 15.8467 6.28667 16.0667 5.42 16.12V17.74H4.34V16.12C3.12667 16.0133 2.14 15.6267 1.38 14.96C0.62 14.28 0.233333 13.42 0.22 12.38H2.16C2.21333 12.94 2.42 13.4267 2.78 13.84C3.15333 14.2533 3.67333 14.5133 4.34 14.62V9.62C3.44667 9.39333 2.72667 9.16 2.18 8.92C1.63333 8.68 1.16667 8.30667 0.78 7.8C0.393333 7.29333 0.2 6.61333 0.2 5.76C0.2 4.68 0.573333 3.78667 1.32 3.08C2.08 2.37333 3.08667 1.98 4.34 1.9V0.239999H5.42V1.9C6.55333 1.99333 7.46667 2.36 8.16 3C8.85333 3.62667 9.25333 4.44667 9.36 5.46H7.42C7.35333 4.99333 7.14667 4.57333 6.8 4.2C6.45333 3.81333 5.99333 3.56 5.42 3.44V8.32C6.3 8.54667 7.01333 8.78 7.56 9.02C8.12 9.24667 8.58667 9.61333 8.96 10.12C9.34667 10.6267 9.54 11.3133 9.54 12.18ZM2.06 5.66C2.06 6.31333 2.25333 6.81333 2.64 7.16C3.02667 7.50667 3.59333 7.79333 4.34 8.02V3.4C3.64667 3.46667 3.09333 3.69333 2.68 4.08C2.26667 4.45333 2.06 4.98 2.06 5.66ZM5.42 14.64C6.14 14.56 6.7 14.3 7.1 13.86C7.51333 13.42 7.72 12.8933 7.72 12.28C7.72 11.6267 7.52 11.1267 7.12 10.78C6.72 10.42 6.15333 10.1333 5.42 9.92V14.64Z" fill="#75778B"/>
</svg>
